<?xml version="1.0" encoding="utf-8"?>
<!-- Generator: Adobe Illustrator 23.0.1, SVG Export Plug-In . SVG Version: 6.00 Build 0)  -->
<svg version="1.1" id="macruz" xmlns="http://www.w3.org/2000/svg" xmlns:xlink="http://www.w3.org/1999/xlink" x="0px" y="0px"
	 viewBox="0 0 595.28 636.06" style="enable-background:new 0 0 595.28 636.06;" xml:space="preserve">
<style type="text/css">
	.st0{fill:url(#SVGID_1_);stroke:#FFFFFF;stroke-width:0.01;stroke-miterlimit:10;}
	.st1{fill:url(#SVGID_2_);stroke:#FFFFFF;stroke-width:0.01;stroke-miterlimit:10;}
	.st2{fill:none;stroke:#FCFAFA;stroke-width:3;stroke-linejoin:round;stroke-miterlimit:50;}
	.st3{fill:none;}
	.st4{fill:url(#SVGID_3_);stroke:#FFFFFF;stroke-width:0.01;stroke-miterlimit:10;}
	.st5{fill:url(#SVGID_4_);stroke:#FFFFFF;stroke-width:0.01;stroke-miterlimit:10;}
	.st6{fill:none;stroke:url(#SVGID_5_);stroke-width:5;stroke-linejoin:bevel;stroke-miterlimit:10;}
	.st7{fill:none;stroke:url(#SVGID_6_);stroke-width:5;stroke-linejoin:bevel;stroke-miterlimit:10;}
	.st8{fill:none;stroke:url(#SVGID_7_);stroke-width:5;stroke-linejoin:bevel;stroke-miterlimit:10;}
	.st9{fill:none;stroke:url(#SVGID_8_);stroke-width:5;stroke-linejoin:bevel;stroke-miterlimit:10;}
	.st10{fill:none;stroke:url(#SVGID_9_);stroke-width:5;stroke-linejoin:bevel;stroke-miterlimit:10;}
	.st11{fill:none;stroke:url(#SVGID_10_);stroke-width:5;stroke-linejoin:bevel;stroke-miterlimit:10;}
	.st12{fill:none;stroke:url(#SVGID_11_);stroke-width:5;stroke-linejoin:bevel;stroke-miterlimit:10;}
</style>
<linearGradient id="SVGID_1_" gradientUnits="userSpaceOnUse" x1="267.925" y1="261.2082" x2="388.8834" y2="140.2497" gradientTransform="matrix(1 -4.300000e-03 4.600000e-03 1.0669 -2.3801 -11.8905)">
	<stop  offset="0" style="stop-color:#FFFFFF"/>
	<stop  offset="0.1505" style="stop-color:#F6F6F6;stop-opacity:0.9981"/>
	<stop  offset="0.5" style="stop-color:#D3D2D3;stop-opacity:0.9801"/>
	<stop  offset="1" style="stop-color:#595657;stop-opacity:0.9"/>
	<stop  offset="1" style="stop-color:#000000;stop-opacity:0.9"/>
</linearGradient>
<path class="st0" d="M257.88,32.42l0.06,223.91l242.97,0.07l-67.76-60.86c0,0-56.67,39.62-134.63,22.34c0,0-17.82-36.84,30.6-81.33
	L257.88,32.42z"/>
<linearGradient id="SVGID_2_" gradientUnits="userSpaceOnUse" x1="239.4468" y1="272.1627" x2="398.4605" y2="431.1763" gradientTransform="matrix(1 -4.300000e-03 4.600000e-03 1.0669 -2.3801 -11.8905)">
	<stop  offset="0" style="stop-color:#FFFFFF"/>
	<stop  offset="0.2688" style="stop-color:#D3D2D3;stop-opacity:0.9801"/>
	<stop  offset="0.9194" style="stop-color:#595657"/>
	<stop  offset="1" style="stop-color:#000000;stop-opacity:0.9"/>
</linearGradient>
<path class="st1" d="M257.94,256.33l242.97,0.07l-69.08,58.81c0,0-57.83-53.08-132.82-27.8c0,0-43.04,104.48,45.02,209.46
	l-85.99,100.24L257.94,256.33z"/>
<path class="st2" d="M1056.84,201.13"/>
<path class="st2" d="M926.66,201.13"/>
<g>
	<path class="st3" d="M1041.58,203.03"/>
</g>
<linearGradient id="SVGID_3_" gradientUnits="userSpaceOnUse" x1="680.8046" y1="263.1825" x2="801.7595" y2="142.2276" gradientTransform="matrix(-1 -4.900000e-03 -4.000000e-03 1.0669 930.9951 -11.8183)">
	<stop  offset="0" style="stop-color:#FFFFFF"/>
	<stop  offset="0.1505" style="stop-color:#F6F6F6;stop-opacity:0.9981"/>
	<stop  offset="0.5" style="stop-color:#D3D2D3;stop-opacity:0.9801"/>
	<stop  offset="1" style="stop-color:#595657;stop-opacity:0.9"/>
	<stop  offset="1" style="stop-color:#000000;stop-opacity:0.9"/>
</linearGradient>
<path class="st4" d="M257.88,32.42l0.06,223.91l-242.96-0.07l67.72-60.82c0,0,56.69,39.66,134.64,22.42c0,0,17.8-36.83-30.65-81.35
	L257.88,32.42z"/>
<linearGradient id="SVGID_4_" gradientUnits="userSpaceOnUse" x1="652.3252" y1="274.1364" x2="811.3425" y2="433.1536" gradientTransform="matrix(-1 -4.900000e-03 -4.000000e-03 1.0669 930.9951 -11.8183)">
	<stop  offset="0" style="stop-color:#FFFFFF"/>
	<stop  offset="0.2688" style="stop-color:#D3D2D3;stop-opacity:0.9801"/>
	<stop  offset="0.9194" style="stop-color:#595657"/>
	<stop  offset="1" style="stop-color:#000000;stop-opacity:0.9"/>
</linearGradient>
<path class="st5" d="M257.94,256.33l-242.97-0.07l69.11,58.85c0,0,57.8-53.04,132.81-27.72c0,0,43.1,104.5-44.91,209.43
	l86.04,100.29L257.94,256.33z"/>
<g>
	
		<radialGradient id="SVGID_5_" cx="311.9142" cy="749.3634" r="72.8558" gradientTransform="matrix(0.9997 -0.0244 0.0244 0.9997 47.5272 -178.0129)" gradientUnits="userSpaceOnUse">
		<stop  offset="0.4086" style="stop-color:#D3D2D3;stop-opacity:0.9801"/>
		<stop  offset="1" style="stop-color:#595657;stop-opacity:0.9"/>
		<stop  offset="1" style="stop-color:#000000;stop-opacity:0.9"/>
	</radialGradient>
	<path class="st6" d="M326.13,617.04l14.18,0.28c0,0-36.31-43.84-48.64-44c0,0,43.3,11.71,48.93,15.91c0,0-15.36-26.05-31.67-45.9
		c3.27,3.97,70.42,73.22,152.28-35.71"/>
	
		<radialGradient id="SVGID_6_" cx="306.9424" cy="714.472" r="33.4618" gradientTransform="matrix(0.9997 -0.0244 0.0244 0.9997 47.5272 -178.0129)" gradientUnits="userSpaceOnUse">
		<stop  offset="0.4086" style="stop-color:#D3D2D3;stop-opacity:0.9801"/>
		<stop  offset="1" style="stop-color:#595657;stop-opacity:0.9"/>
		<stop  offset="1" style="stop-color:#000000;stop-opacity:0.9"/>
	</radialGradient>
	<path class="st7" d="M336.11,556.42c0,0,21.44-9.37,44.84-55.82c0,0,11.72,22.13,27.76,23.83"/>
	
		<radialGradient id="SVGID_7_" cx="316.3797" cy="723.8654" r="26.3312" gradientTransform="matrix(0.9997 -0.0244 0.0244 0.9997 47.5272 -178.0129)" gradientUnits="userSpaceOnUse">
		<stop  offset="0.4086" style="stop-color:#D3D2D3;stop-opacity:0.9801"/>
		<stop  offset="1" style="stop-color:#595657;stop-opacity:0.9"/>
		<stop  offset="1" style="stop-color:#000000;stop-opacity:0.9"/>
	</radialGradient>
	<path class="st8" d="M388.63,511.53c0,0-14.54,31.6-31.6,41.2c0,0,16.39,3.12,17.85,11.55c0,0,16.2-34.9,30.74-40.44"/>
	
		<radialGradient id="SVGID_8_" cx="331.3376" cy="677.0314" r="44.3025" gradientTransform="matrix(0.9997 -0.0244 0.0244 0.9997 47.5272 -178.0129)" gradientUnits="userSpaceOnUse">
		<stop  offset="0.4086" style="stop-color:#D3D2D3;stop-opacity:0.9801"/>
		<stop  offset="1" style="stop-color:#595657;stop-opacity:0.9"/>
		<stop  offset="1" style="stop-color:#000000;stop-opacity:0.9"/>
	</radialGradient>
	<path class="st9" d="M392.14,452.16l8,24.73l-5.75-9.45c0,0-23.23,17.08-42.77,9.69c-19.54-7.39,63.53,26.85,72.25,51.48
		c0,0-0.91-40.13,19.01-35.77l-15.13-8"/>
	
		<radialGradient id="SVGID_9_" cx="374.324" cy="623.9457" r="39.5567" gradientTransform="matrix(0.9997 -0.0244 0.0244 0.9997 47.5272 -178.0129)" gradientUnits="userSpaceOnUse">
		<stop  offset="0.4086" style="stop-color:#D3D2D3;stop-opacity:0.9801"/>
		<stop  offset="1" style="stop-color:#595657;stop-opacity:0.9"/>
		<stop  offset="1" style="stop-color:#000000;stop-opacity:0.9"/>
	</radialGradient>
	<path class="st10" d="M432.15,475.18c0,0,7.38-3.8,21.69-7.8l-47.23-9.41c-28.73,49.32,82.07-160.22,26.59,4.6
		c0,0,25.06-34.74,38.62-60.49c0,0-14.91,33.71,2.49,43.41"/>
	
		<radialGradient id="SVGID_10_" cx="422.627" cy="575.108" r="37.9867" gradientTransform="matrix(0.9997 -0.0244 0.0244 0.9997 47.5272 -178.0129)" gradientUnits="userSpaceOnUse">
		<stop  offset="0.4086" style="stop-color:#D3D2D3;stop-opacity:0.9801"/>
		<stop  offset="1" style="stop-color:#595657;stop-opacity:0.9"/>
		<stop  offset="1" style="stop-color:#000000;stop-opacity:0.9"/>
	</radialGradient>
	<path class="st11" d="M451.46,388.99c0,0,26.35,9.7,24.55,32.68c0,0,33.23-50.01,47.08-55.91c0,0-56.47,3.44-77.93-12.53"/>
	
		<radialGradient id="SVGID_11_" cx="450.8839" cy="541.5115" r="80.4736" gradientTransform="matrix(0.9997 -0.0244 0.0244 0.9997 47.5272 -178.0129)" gradientUnits="userSpaceOnUse">
		<stop  offset="0.4086" style="stop-color:#D3D2D3;stop-opacity:0.9801"/>
		<stop  offset="1" style="stop-color:#595657;stop-opacity:0.9"/>
		<stop  offset="1" style="stop-color:#000000;stop-opacity:0.9"/>
	</radialGradient>
	<path class="st12" d="M464.95,333.78c-12.63-2.02-29.01-11.25-29.01-11.25l14.59,1.58l56.05-54.48l4.26,166.67
		c0,0,18.88-67.7,61.54-100.15l-19.7-7.63c0,0,20.12,2.04,33.72,5.82"/>
</g>
</svg>
