<?xml version="1.0" encoding="utf-8"?>
<!-- Generator: Adobe Illustrator 23.0.1, SVG Export Plug-In . SVG Version: 6.00 Build 0)  -->
<svg version="1.1" xmlns="http://www.w3.org/2000/svg" xmlns:xlink="http://www.w3.org/1999/xlink" x="0px" y="0px"
	 viewBox="0 0 1056 1520" style="enable-background:new 0 0 1056 1520;" xml:space="preserve">
<style type="text/css">
	.st0{fill:#405E40;}
	.st1{fill:#2A3D2A;}
	.st2{fill:#FF7F00;}
	.st3{fill:#C90909;}
	.st4{fill:#A00000;}
	.st5{fill:#0025FF;}
	.st6{fill:none;stroke:#FF7F00;stroke-width:2;stroke-miterlimit:10;}
	.st7{fill:none;stroke:#C90909;stroke-miterlimit:10;}
	.st8{fill:none;stroke:#FF7F00;stroke-miterlimit:10;}
	.st9{fill:none;stroke:#2A3D2A;stroke-width:2;stroke-miterlimit:10;}
	.st10{fill:#6D0800;}
	.st11{fill:#FFFFFF;stroke:#2A3D2A;stroke-width:2;stroke-miterlimit:10;}
	.st12{fill:#2A3D2A;stroke:#2A3D2A;stroke-miterlimit:10;}
	.st13{fill:none;stroke:#2A3D2A;stroke-width:3;stroke-miterlimit:10;}
	.st14{fill:#FFFFFF;stroke:#2A3D2A;stroke-width:3;stroke-miterlimit:10;}
</style>
<g id="Layer_1">
</g>
<g id="Layer_2">
	<path class="st0" d="M-57.52-265.19c0,0-0.49-4.11-0.31-6.58"/>
	<g>
		<g>
			<path class="st1" d="M669.29,139.46c0,0-3.07,40.13-8.35,78.95c-0.36,2.64-5.57,4.3-5.95,6.92c-0.39,2.68,4.05,6.32,3.64,8.94
				c-3.16,20.31-6.93,38.58-11.16,48.32c0,0,7.34,89.82,5.95,98.12l-12.49,13.35l10.21,1.63l-9.64,63.25l12.59-9.93l-4.47-21.17
				c0,0,34.65-36.52,38.66-84.19C688.3,343.67,693.08,189.29,669.29,139.46z"/>
			<g>
				<path class="st1" d="M694.28,17.52c-1.38,6.18-2.99,12.31-4.76,18.4c-1.78,6.08-3.74,12.13-5.97,18.08
					c-2.23,5.96-4.72,11.84-7.75,17.52c-0.37,0.72-0.77,1.41-1.17,2.11c-0.4,0.7-0.79,1.41-1.23,2.09
					c-0.83,1.39-1.74,2.74-2.67,4.08l-1.47,1.97l-1.6,1.9c-0.56,0.62-1.16,1.21-1.74,1.82c-0.62,0.58-1.27,1.14-1.91,1.71l0.79-2.04
					c1.46,7.06,2.85,14.11,4.18,21.19c1.33,7.07,2.6,14.16,3.79,21.28c0.57,3.56,1.17,7.12,1.69,10.7c0.26,1.79,0.55,3.57,0.78,5.37
					l0.73,5.39l0.63,5.43c0.23,1.8,0.34,3.65,0.51,5.48c0.19,1.81,0.23,3.71,0.33,5.58l0.06,1.41l-0.03,1.48l-0.07,2.96l-8.96-0.88
					l0.18-2.42l0.1-1.21l0.01-1.29c0-1.72,0.07-3.42-0.02-5.18c-0.07-1.76-0.07-3.5-0.2-5.27l-0.32-5.3l-0.42-5.32
					c-0.13-1.77-0.32-3.55-0.48-5.33c-0.31-3.55-0.72-7.11-1.09-10.66c-0.79-7.11-1.66-14.22-2.59-21.33
					c-0.93-7.1-1.93-14.21-2.99-21.29l-0.19-1.26l0.98-0.78l1.71-1.37l1.63-1.53l1.55-1.65l1.47-1.75c0.94-1.21,1.87-2.43,2.74-3.71
					c0.45-0.63,0.87-1.28,1.29-1.94c0.42-0.65,0.85-1.3,1.24-1.98c3.23-5.33,6.01-10.98,8.54-16.75c2.54-5.76,4.81-11.66,6.92-17.61
					C690.61,29.63,692.57,23.61,694.28,17.52z"/>
			</g>
			<g>
				<path class="st1" d="M656.55,36.57c0,0,3.42,11.12,6.55,22.35c1.56,5.61,3.05,11.25,4.01,15.55c0.48,2.15,0.82,3.97,0.98,5.33
					c0.04,0.34,0.05,0.67,0.08,0.94c0.02,0.28,0,0.59-0.01,0.81c0,0.06,0,0.1-0.01,0.17c-0.02,0.08-0.03,0.15-0.04,0.22
					c-0.03,0.14-0.06,0.25-0.09,0.35c-0.06,0.18-0.09,0.28-0.09,0.28l-2.69-1.33c0,0-0.01,0-0.03,0.02
					c-0.01,0.01-0.01,0.02-0.01,0.03c0,0.01,0,0.01,0.01,0.02c0-0.01,0-0.05,0.01-0.07c0-0.13,0.03-0.23,0.03-0.45
					c-0.01-0.22,0-0.45-0.01-0.75c-0.06-1.18-0.27-2.96-0.6-5.09c-0.66-4.27-1.78-9.98-2.98-15.67
					C659.25,47.9,656.55,36.57,656.55,36.57z"/>
			</g>
			<g>
				<path class="st1" d="M608.95,527.63l7.97-7.79l-0.06,0.12l1.29-34.9l0.01-0.22l0.15-0.2c4.67-6.16,9.37-12.3,14.15-18.38
					c2.39-3.04,4.79-6.07,7.25-9.07l1.85-2.24c0.63-0.74,1.24-1.49,1.89-2.23c0.65-0.73,1.27-1.48,1.96-2.2l1.03-1.09l1.17-1.09
					l1.86,2.36l-0.97,0.85l-0.99,0.99c-0.67,0.65-1.31,1.37-1.96,2.06c-0.66,0.69-1.29,1.42-1.93,2.13l-1.91,2.16
					c-2.53,2.89-5.03,5.84-7.51,8.79c-4.96,5.91-9.86,11.88-14.71,17.88l0.16-0.42l-2.42,34.84l0,0.07l-0.05,0.05L608.95,527.63z"/>
			</g>
		</g>
		<path class="st0" d="M686.46,326c0,0-331.05,207.52-409.87,389.48c-78.01,180.1-99.78-173.98-99.78-173.98
			s236.82-237.43,506.92-294.71"/>
		<g>
			<path class="st2" d="M207.27,520l-32.81-135.12l142.52-80.74l7.76,37.78l22.27-35.04l72.09,116.36c0,0,19.45-12.21,38.24-4.25
				c18.79,7.96,21.32-7.34,61.67,15.5l22.18-2.22c0,0,106.59-116.48,97.95,14.71c0,0-4.66,18.96-2.58,39.87
				c0,0,36.2-50.27,69.73-59.32l24.58,33.22c0,0-6.49-36.56,10.84-62.87l10.48,3.02l-8.3-13.4l30.67-44.46l111.6,77.04l-0.19,45.64
				l-9.14,9.21c0,0-2.96,43.99-19.5,36.68c0,0,25.02,87.6,27.62,109.5c0,0,52.06,72.56,76.55,80.46l12.36-9.13l13.86,27.88
				c0,0,46.73,26.36,71.13,20.52l-9.95,48.56c0,0-20.77,27.01-29.31,31.32c0,0,17.57,43.14,25.05,45.3l-13.07,45.31l-20.23,11.09
				c0,0-56.9-24.87-197.25,70.87c0,0-19.64,23.1-37.7-54.88l-16.61-26.79c0,0-117.35-9.31-114.38-70.22l-8.54,4.31l-29.1-39.7
				l3.31-14.28l-10.27,4.65c0,0-31.34-32.73-30.02-46.74c0,0-23.74,27.85-13.72,57.81c10.01,29.96-44.32,27.87-91.97-4.53
				c0,0-17.95-30.56-19.74-41.23l-34.89-8.37l-12.33-33.17l-6.6,3.17c0,0-48.45-6.36-64.38-131.11c0,0-6.5,6.73-14.01,8.84
				c-17.01,4.77-24.55-12.34-36.46-8.17c-31.41,11-54.62-33.16-54.62-33.16L207.27,520z"/>
			<polyline class="st3" points="616.65,627.57 622.74,662.69 643.72,648.27 			"/>
			<path class="st4" d="M774.12,541.02c0,0,35,57.26,42.05,84C816.17,625.02,812.7,537.3,774.12,541.02z"/>
			<path class="st3" d="M776.98,419.69l-5.1-16.07l11.08-21.55c0,0,64.67,41.5,74.88,60.95c0,0,2.45,21.01-0.92,26.39l-6.3,7.07
				c0,0,3.88,22.08-2.34,23.77l-14.27-4.12"/>
			<path class="st3" d="M904.89,769.88c0,0,11.71,7.18,12.53,18.42c0,0,29.44-32.12,34.38-29.24l-8.63-27.7l-38.26-23.39
				C904.91,707.97,910.98,766.35,904.89,769.88z"/>
			<path class="st3" d="M947.13,836.39c4.7-8.62,63.17-29.87,63.17-29.87l8.41-20.73c0,0-37.03-29.79-73.27,5.16l-73.11,57.33
				L947.13,836.39z"/>
			<path class="st3" d="M780.54,706.82c-12.99-5.54,4.61-32.83,4.61-32.83l12.11,9.21l6.44-10.28l-4.96-19.18l-38.22-10.37
				c0,0,4.2,72.07,15.26,69.4C786.85,710.1,780.54,706.82,780.54,706.82z"/>
			<path class="st3" d="M1017.45,864.72c3.49,24.46-14.89,29.15-14.89,29.15c-50.22-14.28-184.22,50.97-184.22,50.97l-34.45-71.78
				c-118.76,3.99-115.85-93.24-115.85-93.24c-4.16-2.47-18.15,12.32-18.15,12.32c0.18-9.05-30.48-34.91-30.48-34.91l2.52-8.73
				l-13.32,12.44l-17.99-40.25l0.24-9.77l65.77-19.42c0,0,17.64-39.02,44.29-41.8c26.66-2.78,76.27,148.92,76.27,148.92l90.39,51.46
				l99.48-1.13L1017.45,864.72z"/>
			<path class="st3" d="M655.13,653.25c-8.13-3.36-27.86,6.32-27.86,6.32l2.42,32.36l32.13-3.8L655.13,653.25z"/>
			<path class="st3" d="M444.74,561.13c0,0,1.28,50.98,0.37,56.16c0,0,13.38,6.17,18.88,10.76c0,0,13.06-30.41,9.29-32.23
				c-1.14-0.55,2.71-34.53,2.71-34.53L444.74,561.13z"/>
			<path class="st3" d="M560,708.89c0,0,4.93-15.92,24.63-19.55l8.6-52.31l-47.3,48L560,708.89z"/>
			<polygon class="st3" points="534.48,677.86 539.75,646.61 549.36,646.99 542.39,674.83 			"/>
			<path class="st3" d="M539.75,646.61l-0.31-24.46l49.93-35.1l30.92,6.8l-19.36,25.3l-10.82-1.43
				c-7.61-0.93-18.96,13.57-18.96,13.57S548.53,649.82,539.75,646.61z"/>
			<path class="st3" d="M544.79,610.37c-0.93-15.73-16.03-6.09-16.03-6.09s7.27-49.54,37.37-45.93
				C596.23,561.96,544.79,610.37,544.79,610.37z"/>
			<path class="st3" d="M453.36,687.65c0,0-11.14,95.44,63.81,113.95c0,0,23.5,10.11,33.66-53"/>
			<path class="st3" d="M452.94,711.49c-7.24-5.84-35.37-3.91-35.37-3.91c-0.74-4.45-12.35-27.49-12.35-27.49l-8.55,8.56
				c-16.27,0.17-34.35-30.27-34.35-30.27s77.42-45.94,93.15-41.4c0,0,19.21,16.33,1.41,42.93
				C456.87,659.9,452.25,705.77,452.94,711.49"/>
			<path class="st0" d="M789.12,837.84c0,0,43.59,46.6,43.86,62.54c0,0,91-53.97,184.75-33.14l4.57-7.44
				c0,0-36.92-51.26-35.66-78.82l-10,0.92l10.8,53.25c0,0-76.12,0.26-90.16,8.9c0,0,67.4-58.62,121.43-58.26l7.94-21.19
				c0,0-108.32-44.49-155.41-123.42c-47.09-78.93,6.36,53.88,8.06,54.31c1.7,0.44,28.98,49.98,25.59,74.39
				c0,0,56.65-40.35,64.59-39.76l-6.31-10.44c0,0-40.24,18.59-45.93,18.64l-5.45-17.65c0,0,29.21,39.31,57.26,46.13
				c0,0-94.75,58.55-148.4,43.5C820.64,810.3,784.7,833.01,789.12,837.84z"/>
			<path class="st0" d="M763.47,413.66c0,0,63.32,33.66,87.78,52.21l-2.7,9.37l-16.01-1.44c0,0,14.58,94.96,24.74,106.14
				c10.16,11.18,37.22,166.22-8.55,215.21c-45.76,48.99-96.11,73.82-162.38-4.32c0,0-58.72-86.88,83.02-194.74
				c0,0,10.18,44.57,29.49,51.41l-0.23,11.35l-18.3-10.36c0,0-37.79,55.1,19.49,65.28c57.29,10.18,3.73-143.67-14.44-158.72
				C767.22,539.99,743.61,478.2,763.47,413.66z"/>
			<path class="st0" d="M591.24,632.36c0,0,18.98-116.08,100.54-159.82c0,0,62.45,44.98,55.08,132.39
				c-7.37,87.41-62.4,58.85-64.12,59.2c0,0-48.4-17.77-57.36-26.06l-2.48,14.2c0,0,52.38-41,68.83-41.78l7.18,11.66
				c0,0-36.53,92.9-38.66,100.28l14.06,27.18l-8.68,4.8L626.8,718.9c0,0,43.58-77.98,5.16-57.24l-23.85,10.98l4.25,23.22
				c0,0,37.3-8.28,38.18-9.29c0.88-1.02,2.26,8.27,2.26,8.27s-54.02,19.96-62.37,26.43C590.43,721.27,575.34,671.7,591.24,632.36z"
				/>
			<path class="st0" d="M452.04,676.65c0,0,11.69,139.43,83.13,85.79c71.44-53.64-31.48-62.39,68.44-116.38
				c0,0,25.58-11.34-27.47-16.17c0,0-28.85,5.48-35.29,20.43l0.42,6.63l0,0c0,0-11.28,53.86-22.03,8.88
				c-10.75-44.99,25.72-94.44,38.8-88.13c13.08,6.31-13.01,35.59-20.14,39.25l3.7,12.49c0,0,46.86-39.16,76.19-42.75
				c0,0-21.41-56.14-0.76-116.46c20.64-60.33-54.83-58.16-106.38,37.64L452.04,676.65z"/>
			<path class="st5" d="M433.06,599.72"/>
			<path class="st0" d="M447.7,621.69c0,0-62.35,20.09-73.69,42.54c0,0-39.29,4.18-20.72-126.88l54.2-93.7
				c0,0,56.22-63.33,66.17-52.85c9.95,10.49,1.06,33.48,6.84,38.74c5.78,5.26,27.18,34.53,51.38,23.74l-3.24,25.3
				c0,0-12.51,4-17.82-0.07c0,0,6.27,14.82-8.45,65.84l6.74,1.94l-9.58,33.22l-7.49-2.16c0,0-23.25,80.6-40,99.29
				c0,0-31.66-13.95-47.04-8.45l1.46-20.52c0,0,22.39-12.19,36.77-11.18c1.23,0.09,0.61,12.71,1.51,12.02
				c10.95-8.42,16.27-73.69,19.59-79.16c0,0-42.44-11.74-54.87,0.43c0,0-0.16,32.89,5.53,35.65l28.59,4.92"/>
			<path class="st0" d="M222.06,507.27l10.01,58.35c0,0-0.05,10.27,1.64,13.12c6.66,11.23,25.22,18.25,41.72,19.76
				c14.75,1.36,24.25,8.75,24.25,8.75l18.09-23.87C317.78,583.38,275.23,489.36,222.06,507.27z"/>
			<path class="st0" d="M222.51,509.86l-19.25-98.27l115.14-57.54c0,0-20.54,119.73-15.89,133.13l39.71-137.68l72.6,104.71
				L307.56,596.98"/>
			<path class="st3" d="M318.4,354.05l5.72,58.19c0,0-21.44,77.52-21.92,80.2C302.2,492.44,300.68,406.64,318.4,354.05z"/>
			<path class="st2" d="M419.09,521.67l49.26,10.96c0,0-4.31-15.71-3.07-30.63C466.52,487.09,447.39,464.89,419.09,521.67z"/>
			<path class="st3" d="M449.98,529.16c0,0,0.08-16.65,15.08-20.34c0,0,0.97,16.57,3.96,23.84L449.98,529.16z"/>
			<path class="st2" d="M671.75,545.51c0,0,13.5-33.36,29.67-8.87c16.17,24.49,17.57,53.2,5.23,59.08
				C706.65,595.71,685.79,547.17,671.75,545.51z"/>
			<path class="st3" d="M692.27,567.45c0,0,12.92-11.86,19.05-10.53c0,0,10.78,28.86-4.67,38.79L692.27,567.45z"/>
			<polyline class="st6" points="407.24,440.76 414.81,454.21 350.3,542.9 			"/>
			<path class="st6" d="M512.73,500.62c0,0-7.28,36.53-10.37,43.73l6.74,1.94l-9.58,33.22l-7.49-2.16c0,0-25.81,87.37-40.39,99.6"/>
			<path class="st5" d="M282.62,548.21"/>
			<polyline class="st6" points="612.34,559.73 617.78,586.69 601.35,592.9 			"/>
			<path class="st6" d="M590.53,630.43c0,0,17.61,1.44,19.96,7.49c0,0,3.32,1.87-2.78,5.55c-6.78,4.09-23.08,15.1-24.57,16.11"/>
			<path class="st7" d="M631.81,643.8c0,0,48.51-34.16,60.09-33.91l7.18,11.66l-15.9,43.42"/>
			<polyline class="st7" points="639.92,688.16 651.52,685.16 652.97,694.25 632.83,703.99 			"/>
			<path class="st6" d="M747.17,613.72c0,0,1.2,69.23-48.86,55.21"/>
			<path class="st6" d="M870.66,636.47c0,0,3.91,43.69,3.84,54.57"/>
			<path class="st6" d="M789.12,837.84c0,0,32.29-14.9,44.16-26.01"/>
			<polyline class="st7" points="978.36,796.36 976.65,781.9 986.65,780.98 989.45,793.42 			"/>
			<line class="st8" x1="924.94" y1="736.09" x2="953.97" y2="723.16"/>
			<line class="st8" x1="965.36" y1="731.68" x2="937.08" y2="747.89"/>
			<path class="st0" d="M782.96,382.07c0,0,67.54,42.11,74.88,60.95c3.05,7.83-8.36,7.9-8.36,7.9c-5.77-5.31-77.6-47.29-77.6-47.29"
				/>
			<path class="st3" d="M248.28,506.97l10.15,87.94c0,0,8.52,3.6,17,3.6c6.33,0,12.68,5,16.1,4.3c2.35-0.48,45.15-116.82,55.68-125
				l5.33-13.9c0,0-43.47,36.11-80.08,131.06L248.28,506.97z"/>
		</g>
		<path class="st0" d="M311.28,962.93c0,0-57.51,8.17-56.48,48.28c0,0-77.41,56.52-99.91,129.46c0,0-5.42,3.1-5.92,8.62
			c-0.17,1.87,2.32,9.05,3.59,11.45c0.59,1.13,1.39-2.72,0.67-1.49c-14.81,25.12,92.62,217.19,92.62,217.19s-9.07,4.67-8.42,11.96
			c0,0-5.92-5.01-5.79,31.39c0,0,11.52,11.58,11.52,21.27c0,0,3.87,6.12,10.14-1.64c0,0-0.03,11.51,6.67,11.81
			c0,0,3.85-1.26,5.81-7.56c0,0,4.47,9.96,10.85,5.45c0,0,6.9-13.72,0.74,38.41c0,0,13.54,12.77,19.09-11.62
			c0,0,8.33-26.25,1.84-41.16c0,0,13.26-1.89,15.77-4.05c0,0,1.42-1.43-2.91-6.48c0,0-3.41-12.11-3.27-14.79
			c0,0-17.89-12.25-36.33-66.85c0,0-48.66-154.17-67.9-181l7.61-9.19c0,0,39.57-34.76,68.9-72.4
			c12.07-15.48,24.86-28.13,28.79-37.45c0,0,21.94,8.58,47.62-24.4"/>
		<path class="st9" d="M290.38,1408.65l7.67,10.83c0,0-2.69,14.08,0.14,18.67"/>
		<path class="st9" d="M278.18,1414.91c0,0,12.65,20.01,0.23,33.99"/>
		<path class="st9" d="M266.73,1419.78c0,0,4.26,15.42-0.04,25.81"/>
		<path class="st9" d="M248.37,1417.39c0,0,8.61,15.97,3.9,23.66"/>
		<path class="st9" d="M243.47,1405.21c0.77-24.73,1.14-24.74,2.13-27.95"/>
		<path class="st0" d="M179.71,540.55c0,0-155.83,111.87-119.86,292.7c34.74,174.68,160.26,219.89,160.26,219.89
			s130.54,59.36,172.69,72.85c0,0,35.95,3.41,61.34,31.13c0,0-4.92,7.34,2.3,13.17c0,0,11.71,24.8-17.62,58.21
			c0,0-4.44,55.09,37.83,124.65c0,0,0.06,22.25,9.45,32.66c0,0-14.64,162.74,136.99,83.89c0,0,13.82-10.19,19.35-20.05
			c0,0,42.87,2.64,27.23-50.23c0,0-2.94-27.56-29.88-9.34c0,0-41.05-2.74-25.05-94.43c0,0,27.28-62.25,45.88-71.01
			c0,0,32.51,0.17,59.99-12.68l4.63-8.37c0,0,23.63-4.42,28.48-6.77c0,0,20.19-35.02,24.04-39.1c0,0,12.31,5.16,13.48-7.77
			c1.16-12.94-4.66-12.27-4.66-12.27l3.01-12.53c0,0,12.31,5.16,14.07-18.75c0,0,0.36-16.66,1.71-18.91c0,0-20.78-14.4-26.17-14.76
			c0,0,10.02-53.18,7.64-80.57c-3.32-38.16-47.93-109.97-93.4-109.46c-45.47,0.52-217.64-128.43-328.82-86.03
			c0,0-30.95-0.29-38.21-11.45c0,0-29.59-30.04-35.94-54.23c-7.34-28-4.97-42.93,13.45-65.62"/>
		<path class="st1" d="M194.83,603.45c0,0-62.06,10.2-71.76,49.19c-9.69,38.99,36.62-8.33,67.91,4.61
			c31.29,12.94,57.13-46.58,65.63-49.61C265.11,604.62,194.83,603.45,194.83,603.45z"/>
		<path class="st1" d="M576.97,336.17c0,0-67.3-13.41-88.23,8.33c-20.94,21.73,53.57,20.97,38.43,29.99
			C512.01,383.5,592.68,383.91,576.97,336.17z"/>
		<path class="st10" d="M721.62,1211.96c0,0-129.39,38.02-232.15-47.48c0,0-20.9-2.72-12.57,22.19c0,0,3.1,48.59,1.74,55.17
			c0,0-1.2,66.38,12.18,96.22c0,0,11.5,105.56,53.53,87.36c42.03-18.21,43.3-9.58,100.9-24.46c0,0-36.69-9.29-37.62-39.38
			c0,0-1.53-88.09,42.54-129.88C650.18,1231.68,646.44,1228.78,721.62,1211.96z"/>
		<path class="st1" d="M527.15,1257.76c0,0,26.64,5.12,25.44,27.06l-18.35,31.81l-47.48-17.19c0,0-10.89-42.55-7.79-62.64
			c0,0,21.18-0.19,31.01,8.13c0,0-10.17,29.02,10.02,28.03C520,1272.96,526.96,1272.77,527.15,1257.76z"/>
		<path class="st11" d="M586.91,1338c0,0-17.12-11.65-18.84,7.25l12.42,8.18L586.91,1338z"/>
		<path class="st3" d="M500.33,1299.68c0,0-8.85-15.45-20.05-13.61c0,0,3.53,38.21,7.99,45.33c0,0,12.36,69.3,21.28,75.49
			c0,0,13.25,32.56,42.18,16.58c0,0,36.75-14.14,78.48-18.85l-1.12,1.71c0,0-37.07-68.15-68.43-59.9c0,0,8.91,16.61,18.92,17.28
			c0,0-21.44,1.57-27.59-37.54c0,0-11.88-31.49-31.47-33.13C520.5,1293.02,490.96,1285.37,500.33,1299.68z"/>
		<path class="st12" d="M234.51,1301.26c0,0-21.49-8.21-36.52-60.6c0,0,5.75-3.62,11.72-1.21c0,0,7.38-8.83,10.98-10.1
			c0,0-13.64,0.94-16.55-1.1c0,0-3.21,5.61-9.46,6.19c0,0-13.52-17.58-4.27-34.32c0,0-14.35-8.3-16.33-16.44
			c0,0-1.06,11.83-3.44,21.01c0,0,15.07,13.24,18.04,33.02c0,0-0.71,6.29-9.91,3.34l4.76,11.6c0,0,1.6-5.09,8.26-7.72
			c0,0,22.96,53.16,23.25,62.86c0,0,20.33,16.46,22.37,23.95C237.42,1331.72,233.55,1308.94,234.51,1301.26z"/>
		<path class="st9" d="M729.61,1180.53c4.69,10.99-7.99,29.56-7.99,29.56"/>
		<path class="st9" d="M470.24,1231.94c0,0-5.71,41.67-0.06,60.84"/>
		<g>
			<path class="st0" d="M408.92,1349.99c-9.97,5.33-16.33,20.78-16.33,20.78c-1.46,26.79-26.48,32.8-26.48,32.8
				c-28.2,0.55-13.37,14.91-13.37,14.91c7.71,12.5,28.1,6.79,28.1,6.79c0.8,4.62-14.3,39-14.3,39c-15.18,12.03-7.25,9.83-10.5,25.39
				c-0.1,0.47-0.18,0.92-0.25,1.35c-2.41,14.07,6.87,11.89,6.87,11.89c16.28,4.58,14.55-18.99,14.55-18.99
				c3.76-1.25,16.5-27.46,16.5-27.46c7.31,12.52-3.85,38.96-3.85,38.96c-2,12.14,7.14,10.53,7.14,10.53
				c22.41-0.5,17.13-26.83,17.13-26.83c5.04-10.68,1.43-20.79,1.43-20.79c-6.09-3.47-3.16-10.79-3.16-10.79l3.96,6.74
				c2.48,1.84,9.93,15.69,9.93,15.69c17.97,1.8,15.57-12.05,15.57-12.05l2.25,3.52c18.42,2.44,19.71-4.66,19.71-4.66
				c-2.05-5.54-0.38-25.67-0.38-25.67c6.25-8.09,3.19-11.89,3.19-11.89c-2.14-6.53-15,1-15,1l-0.48-5.31
				c18.16-17.56-0.01-47.38-0.01-47.38s9.64-28.36,21.71-33.93l-16.3-51.14L408.92,1349.99z"/>
			<path class="st9" d="M450.53,1443.3c0,0,2.44-15.84-0.34-25.34"/>
			<path class="st9" d="M442.09,1459.06c0,0-10.28-11-2.49-27.71"/>
			<path class="st9" d="M413.91,1433.07c0,0-5.82,11.62,0.75,21.3"/>
			<path class="st9" d="M401.72,1424.87c0,0-12.63,14.53-8,31.57"/>
			<path class="st9" d="M396.07,1400.9c0,0-12.78,14.73-15.23,24.37"/>
		</g>
		<path class="st11" d="M789.65,1139.36c0,0-23.58,8.9-27.01,6.89l-7.09-18.71c-1.37,6.05,5.14-26.93,20.34-30.67
			c0,0,14.25,7.62,12.94,22.22C788.83,1119.09,785.35,1136.17,789.65,1139.36z"/>
		<path class="st13" d="M765.62,1158.92l-2.99-12.66c0,0-8.23,22.59-27.92,23.49c0,0-13.69-14.26-18.14-22.12"/>
		<path class="st13" d="M719.51,1114.91c0,0-6.4,13.81-7.24,17.31"/>
		<path class="st13" d="M691.22,1108.12c0,0,6.5-3.37,12.08,9.14l13.83,24.17c0,0-1.4,27.04-20.87,36.87c0,0-22.07,15.88-56.35-22
			l-4.53-18.55"/>
		<path class="st14" d="M636.52,1153.85c0,0-15.85,26.97-30.43,22.66c0,0-17.47-0.89-38.42-14.78c0,0-22.09-18.41-35.53-18.2
			c0,0-11.06-14.75-9.94-32.92c0,0-2.3-37.53,61.94-31.46c0,0,36.73,2.01,40.11,21.81C624.24,1100.97,636.68,1146.29,636.52,1153.85
			z"/>
		<path class="st13" d="M555.34,1034.75c0,0-27.1-17.16-37.72-2.52c0,0-38.4,30.9-40.74,39.7c0,0,16.98,43.68,16.48,49.21"/>
		<path class="st13" d="M525.35,1130.4c0,0-25.9-7.96-32.42-4.39c0,0-9.77,5.35-10.9,9.28"/>
		<path class="st13" d="M464.05,1111.4c0,0,9.66-12.72,32.85,13.53"/>
		<path class="st13" d="M585.33,1105.94c0,0-5.89,9.51-2.35,26.1L585.33,1105.94z"/>
		<path class="st13" d="M775.26,1131.37c0,0,6.58-8.57,0.04-15.52L775.26,1131.37z"/>
		<path class="st2" d="M697.33,947.62c0,0-108.39-139.47-329.1-152.24c0,0,1.65-5.25,0.96-10.64c0,0,7.72,1.8,20.29,5.33
			c0,0-14.18-16.94-15.93-53.76c0,0,16.04,15.09,44.87,13.01c28.83-2.08,39.86,5.8,39.86,5.8s-28.78-17.08-26.63-40.96l-7.45-11.84
			c0,0,12.71,22.2,59.55,26.67c0,0,40.66,12.73,45.04,24.36c0,0-25.67-24.4-20.85-69.46c0,0,34.43,39,52.85,40.9
			c0,0,33.02,28.9,36.44,42.48c0,0,5.84-47.66-3.85-77.67c0,0,69.98,91.43,85.56,167.88c0,0,7.32-43.46,5.08-52.16
			c0,0,6.54,55.84,3.73,66.09l30.6-26.09C718.33,845.33,688.29,927.66,697.33,947.62z"/>
		<path class="st13" d="M779.19,1072.73c0,0-19.4-5.3-30.99,1.6"/>
		<path class="st13" d="M506.26,1162.94c0,0-11.62-18.12-28.91-12.61"/>
		<path class="st11" d="M720.59,1211.96c0,0-5.72,16.17-14.48,3.81L720.59,1211.96z"/>
		<path class="st11" d="M702.18,1216.47c0,0-8.76,19.31-17.06,3.27L702.18,1216.47z"/>
		<path class="st11" d="M680.75,1220.2c0,0-11.13,18.99-21.79,0.46L680.75,1220.2z"/>
		<path class="st11" d="M644.73,1220.7c0,0,6.83,21.29,14.23-0.04L644.73,1220.7z"/>
		<path class="st11" d="M639.69,1220.55c0,0-8.67,23.09-19.25-1.29L639.69,1220.55z"/>
		<path class="st11" d="M615.44,1218.61c0,0-12.14,23.48-18.67-2.95L615.44,1218.61z"/>
		<path class="st11" d="M592.23,1214.28c0,0-11.79,19.16-16.33-3.57L592.23,1214.28z"/>
		<path class="st11" d="M572.25,1210.46c0,0-15.88,17.67-16.53-6.46L572.25,1210.46z"/>
		<path class="st11" d="M552.39,1202.71c0,0-13.48,15.7-15.19-6.72L552.39,1202.71z"/>
		<path class="st11" d="M523.92,1188.94c0,0-4.28,19.83,13.28,7.04L523.92,1188.94z"/>
		<path class="st11" d="M520.28,1186.81c0,0-10.49,8.42-11.15-7.15L520.28,1186.81z"/>
		<path class="st11" d="M484.71,1322.3c0,0,16.09-28.26,17.55,8.54l-11.02,20.74C491.23,1351.58,490.96,1336.59,484.71,1322.3z"/>
		<path class="st11" d="M509.71,1348.35c0,0-9.79-39.03-19.69-1.31l5.66,21.56L509.71,1348.35z"/>
		<path class="st11" d="M518.4,1363.62c0,0-11.64-34.44-23.88,0.59c0,0,4.94,31.72,10.12,30.96
			C504.64,1395.17,522.7,1393.27,518.4,1363.62z"/>
		<path class="st11" d="M594.16,1360.67l-13.34-10.87c0,0,7.05-13.91,15.16-9.36C595.98,1340.44,613.71,1354.3,594.16,1360.67z"/>
		<path class="st11" d="M597.45,1362.9c0,0-2.83-20.19,13.44-7.44l9.26,13.26C620.15,1368.72,605.02,1403.44,597.45,1362.9z"/>
		<path class="st11" d="M629.08,1406.32c0,0-31.91-17.34-12.35-37.6c0,0,24.56-2.58,16.31,24.57
			C633.04,1393.29,633.83,1399.91,629.08,1406.32z"/>
		<path class="st11" d="M604.45,1410.5c0,0-28.85-15.22-13.53-32.96c0,0,14.11-17.15,25.67,9.32
			C616.58,1386.87,618.32,1403.19,604.45,1410.5z"/>
		<path class="st11" d="M588.31,1382.64c0,0-17.79-7.9-31.34,4.56c0,0,1.73,22.15,23.34,25.6
			C580.32,1412.8,592.85,1409.63,588.31,1382.64z"/>
		<path class="st11" d="M559.3,1391.04c0,0-14.03-27.3-23.21-1.55c0,0-15.03,26.17,10.35,34.63c0,0,5.12,1.47,15.09-6.22
			L559.3,1391.04z"/>
		<path class="st11" d="M538.09,1381.44c0,0-5.35,20.66-2.78,30.85c0,0-10.03,12.15-12.94,12.38c0,0-28.87-51.21,1.42-56.53
			L538.09,1381.44z"/>
		<path class="st1" d="M556.86,899.38c0,0-70.13-30.7-60.05-48.83c10.08-18.14-92.23,57.79-67.04,60.81
			c25.19,3.01,75.78-8.81,68.91,4.61C491.79,929.36,553.82,908.73,556.86,899.38z"/>
		<path class="st1" d="M757.25,973.75c0,0-22.34-37.85-31.91-42.64c-9.57-4.8-17.67,34.63-17.46,42.48
			c0.2,7.85,25.13,5.6,23.65,10.98C730.05,989.96,752.65,987.55,757.25,973.75z"/>
		<path class="st1" d="M254.84,1056.53c0,0-41.35,22.07-48.87,41.5c-7.53,19.42,8.31-1.4,23.1-5.93
			C243.87,1087.56,254.94,1065.52,254.84,1056.53z"/>
		<path class="st1" d="M666.91,1053.14c0,0-2.25-33.07-25.46-53.43c-23.21-20.36-16.68,9.86-16.68,9.86
			S618.17,1027.15,666.91,1053.14z"/>
		<path class="st1" d="M244.74,655.8c0,0,2.79,105.4,37.36,122.99c34.56,17.59,45,25.34,5.48,35.05
			c-39.52,9.7-87.33,2.98-87.84-29.38c-0.49-32.36-4.65-54.39,6.52-72.45C217.44,693.94,232.6,722.58,244.74,655.8z"/>
		<path class="st1" d="M239.51,926.21c0,0-27.85,69.7-62.1,49.78c-34.25-19.92-45.95-26.29-63.54-58.17
			c-17.59-31.88,21.71-67.04,21.71-67.04S380.16,904.9,239.51,926.21z"/>
		<path class="st9" d="M467.22,1336.48c0,0-15.41-27.52-16.56-44.57"/>
		<path class="st9" d="M281.86,1080.36c0,0,25.15-27.97,27.46-36.46c0,0,30.82,6.53,47.62-24.4"/>
		<path class="st9" d="M211.64,1049.46c0,0,32.12-33.29,42.17-36.86c0,0,1.03-41.45,49.2-43.36"/>
		<path class="st9" d="M642.68,1449.4c0,0,3.55-12.25,3.93-15.4"/>
	</g>
</g>
</svg>
